<svg width="94" height="84" viewBox="0 0 94 84" fill="none" xmlns="http://www.w3.org/2000/svg">
<path d="M90 30.5L48 77.5L18.5 47L9.5 39L7 29L9.5 18.5L18.5 5.5L48 13L74.5 5.49996L90 30.5Z" fill="#333333"/>
<path d="M47.0021 7.27309C41.8669 2.59602 35.1455 0.000217322 28.1694 0C24.4771 0.00380788 20.8219 0.730855 17.4144 2.1393C14.0068 3.54774 10.914 5.60978 8.31409 8.20674C-2.77529 19.2377 -2.77058 36.4915 8.32352 47.4758L42.8783 81.7032C43.6795 83.099 45.2253 84 47.0021 84C47.7316 83.993 48.4493 83.8166 49.0976 83.485C49.7458 83.1534 50.3065 82.6758 50.7347 82.0907L85.6806 47.4758C96.7747 36.4868 96.7747 19.2377 85.6712 8.18806C83.0725 5.59588 79.9823 3.53803 76.578 2.13283C73.1738 0.727634 69.5227 0.0027991 65.8347 0C58.8588 0.00112952 52.1377 2.5968 47.0021 7.27309ZM79.0072 14.7889C86.3734 22.1227 86.3781 33.5785 79.0166 40.875L47.0021 72.5862L14.9875 40.875C7.62602 33.5785 7.63073 22.1227 14.9781 14.8076C18.5599 11.2784 23.2445 9.33645 28.1694 9.33645C33.0944 9.33645 37.7601 11.2784 41.3136 14.7983L43.6701 17.1324C44.1074 17.5663 44.6267 17.9105 45.1985 18.1454C45.7702 18.3802 46.3831 18.5011 47.0021 18.5011C47.621 18.5011 48.2339 18.3802 48.8056 18.1454C49.3774 17.9105 49.8968 17.5663 50.3341 17.1324L52.6905 14.7983C59.8164 7.75392 71.8907 7.77259 79.0072 14.7889Z" fill="#333333"/>
</svg>
